<svg xmlns="http://www.w3.org/2000/svg" xml:space="preserve" style="enable-background:new 0 0 200 75.3" viewBox="0 0 200 75.3"><path d="M0 0h200v75.3H0z" style="fill:#034360"/><path d="M16.5 11.1h92.3v53.2H16.5z" fill="#26a8e0"/><path d="M111.8 43h-7.4l-6.2-5.7c-.4-.3-.9-.5-1.4-.4-.5.1-.9.5-1.1.9L91 51.4l-5.6-29c-.1-.7-.7-1.2-1.4-1.2h-.1c-.7 0-1.3.4-1.5 1.1l-5.6 19.9-4.5-5c-.3-.3-.7-.5-1.2-.5H71c-.5 0-.9.3-1.2.6l-4.2 5.9h-4c-1.3 0-4.4-.2-7-1.4-2.4-1.1-3.6-2.8-3.6-5.2 0-2.6 1.2-3.5 2.2-3.9.4-.1.7-.2 1.1-.2.8 0 1.4.3 1.7.5v.2c.3 1 1.1 1.5 2.1 1.4 1.5-.2 2.5-2.3 2.5-4.1 0-5-3-8.2-8.5-9-.5-.1-1-.1-1.5-.1-6.5 0-15 6.1-25.7 18.6-1.3 1.2-4.6 3.9-8.8 3.9-1.5 0-3.1-.4-4.5-1.1-.3-.2-.5-.2-.8-.2-.6 0-1.2.5-1.4 1.1-.2.7.1 1.3.9 1.8 1.8.9 3.8 1.4 5.9 1.4 3.8 0 7.6-1.6 10.9-4.7l.1-.1c6.9-8 16.6-17.6 23.5-17.6.4 0 .7 0 1 .1 5 .8 5.8 3.5 5.9 5.5v.6l-.5-.3c-1-.6-2.4-.8-3.7-.6-4 .6-5.4 4-5.4 7 0 3.6 1.9 6.3 5.4 7.9 2.6 1.2 5.4 1.5 7.4 1.6h5.7c.5 0 1-.2 1.3-.6l3.5-5 5 5.7c.4.4 1 .6 1.5.5.6-.1 1-.5 1.2-1l4.6-16.3L89 57.5c.1.6.7 1.1 1.4 1.2h.1c.7 0 1.2-.4 1.5-1L97.8 41l4.9 4.5c.3.3.7.4 1.1.4h8c.8 0 1.5-.6 1.5-1.4 0-.8-.7-1.5-1.5-1.5z" fill="#ffffff"/><path d="M115.7 63.9v-7.4h.9V63h4.1v.8h-5zM124 56.5h.8l3 7.4h-1l-.9-2.2h-3.1l-.9 2.2h-1l3.1-7.4zm1.7 4.5-1.3-3.4L123 61h2.7zM134.4 62c0 .3-.1.5-.2.8-.1.2-.3.4-.5.6-.2.2-.4.3-.7.4-.3.1-.5.1-.8.1h-3.5v-7.4h3.7c.3 0 .5.1.7.2.2.1.4.3.5.4.1.2.3.4.3.6.1.2.1.5.1.7 0 .4-.1.7-.3 1-.2.3-.4.5-.8.7.4.1.8.4 1 .7.4.3.5.7.5 1.2zm-4.7-4.7v2.5h2.3c.2 0 .3 0 .5-.1.1-.1.3-.2.4-.3.1-.1.2-.2.2-.4.1-.1.1-.3.1-.5s0-.3-.1-.5-.1-.3-.2-.4l-.3-.3c-.1-.1-.3-.1-.4-.1h-2.5zm3.8 4.5c0-.2 0-.3-.1-.5s-.1-.3-.2-.4c-.1-.1-.2-.2-.4-.3-.1-.1-.3-.1-.5-.1h-2.6V63h2.6c.2 0 .3 0 .5-.1.1-.1.3-.2.4-.3.1-.1.2-.2.3-.4-.1-.1 0-.2 0-.4zM138.7 63.9c-.5 0-1-.1-1.4-.3-.4-.2-.8-.5-1.1-.8-.3-.3-.5-.7-.7-1.2-.2-.4-.2-.9-.2-1.4 0-.5.1-1 .3-1.4.2-.4.4-.8.7-1.2.3-.3.7-.6 1.1-.8.4-.2.9-.3 1.4-.3.5 0 1 .1 1.4.3.4.2.8.5 1.1.9.3.4.5.8.7 1.2.2.4.2.9.2 1.4 0 .5-.1 1-.3 1.4-.2.4-.4.8-.7 1.2-.3.3-.7.6-1.1.8-.4.1-.9.2-1.4.2zm-2.5-3.7c0 .4.1.7.2 1.1.1.3.3.7.5.9.2.3.5.5.8.6.3.2.7.2 1 .2.4 0 .7-.1 1.1-.3.3-.2.6-.4.8-.7.2-.3.4-.6.5-.9.1-.3.2-.7.2-1 0-.4-.1-.7-.2-1.1-.1-.3-.3-.7-.5-.9-.2-.3-.5-.5-.8-.6-.3-.2-.6-.2-1-.2s-.7.1-1.1.2c-.3.2-.6.4-.8.7s-.4.6-.5.9c-.2.4-.2.7-.2 1.1zM143.5 63.9v-7.4h3.2c.3 0 .6.1.9.2.3.1.5.3.7.5.2.2.4.5.5.8.1.3.2.6.2.9 0 .3 0 .5-.1.7-.1.2-.2.5-.3.6-.1.2-.3.4-.5.5l-.6.3 1.8 2.8H148l-1.7-2.6h-1.9v2.6h-.9zm.9-3.5h2.2c.2 0 .4 0 .5-.1.2-.1.3-.2.4-.3.1-.1.2-.3.3-.5.1-.2.1-.4.1-.6 0-.2 0-.4-.1-.6-.1-.2-.2-.3-.3-.5-.1-.1-.3-.3-.4-.3-.2-.1-.3-.1-.5-.1h-2.2v3zM152.5 56.5h.8l3 7.4h-1l-.9-2.2h-3.1l-.9 2.2h-1l3.1-7.4zm1.8 4.5-1.3-3.4-1.4 3.4h2.7zM161.9 57.3h-2.5v6.5h-.9v-6.5H156v-.8h6v.8zM165.8 63.9c-.5 0-1-.1-1.4-.3-.4-.2-.8-.5-1.1-.8-.3-.3-.5-.7-.7-1.2-.2-.4-.2-.9-.2-1.4 0-.5.1-1 .3-1.4.2-.4.4-.8.7-1.2.3-.3.7-.6 1.1-.8.4-.2.9-.3 1.4-.3.5 0 1 .1 1.4.3.4.2.8.5 1.1.9.3.4.5.8.7 1.2.2.4.2.9.2 1.4 0 .5-.1 1-.3 1.4-.2.4-.4.8-.7 1.2-.3.3-.7.6-1.1.8-.5.1-.9.2-1.4.2zm-2.6-3.7c0 .4.1.7.2 1.1.1.3.3.7.5.9.2.3.5.5.8.6.3.2.7.2 1 .2.4 0 .7-.1 1.1-.3.3-.2.6-.4.8-.7.2-.3.4-.6.5-.9.1-.3.2-.7.2-1 0-.4-.1-.7-.2-1.1-.1-.3-.3-.7-.5-.9-.2-.3-.5-.5-.8-.6-.3-.2-.6-.2-1-.2s-.7.1-1.1.2c-.3.2-.6.4-.8.7s-.4.6-.5.9c-.1.4-.2.7-.2 1.1zM170.5 63.9v-7.4h3.2c.3 0 .6.1.9.2.3.1.5.3.7.5.2.2.4.5.5.8.1.3.2.6.2.9 0 .3 0 .5-.1.7-.1.2-.2.5-.3.6-.1.2-.3.4-.5.5l-.6.3 1.8 2.8h-1.1l-1.7-2.6h-1.9v2.6h-1.1zm1-3.5h2.2c.2 0 .4 0 .5-.1.2-.1.3-.2.4-.3.1-.1.2-.3.3-.5.1-.2.1-.4.1-.6 0-.2 0-.4-.1-.6-.1-.2-.2-.3-.3-.5-.1-.1-.3-.3-.4-.3-.2-.1-.3-.1-.5-.1h-2.2v3zM177.3 56.5l2.2 3.8 2.3-3.8h1l-2.8 4.7v2.7h-.9v-2.7l-2.8-4.7h1zM122.5 39.8c-1 0-1.9-.2-2.7-.6-.8-.4-1.5-.9-2.1-1.6-.6-.7-1-1.4-1.4-2.3-.3-.9-.5-1.7-.5-2.6 0-.9.2-1.8.5-2.7.3-.9.8-1.6 1.4-2.3.6-.7 1.3-1.2 2.1-1.6.8-.4 1.7-.6 2.7-.6 1 0 1.9.2 2.7.6.8.4 1.5 1 2.1 1.6.6.7 1 1.4 1.4 2.3.3.9.5 1.7.5 2.6 0 .9-.2 1.8-.5 2.7-.3.9-.8 1.6-1.4 2.3-.6.7-1.3 1.2-2.1 1.6-.9.4-1.8.6-2.7.6zm-4.9-7.1c0 .7.1 1.4.3 2.1.2.7.6 1.3 1 1.8s.9.9 1.5 1.2c.6.3 1.3.5 2 .5.8 0 1.4-.2 2-.5.6-.3 1.1-.7 1.5-1.3.4-.5.7-1.1 1-1.8.2-.7.3-1.3.3-2s-.1-1.4-.3-2.1c-.2-.7-.6-1.3-1-1.8s-.9-.9-1.5-1.2c-.6-.3-1.2-.5-2-.5s-1.4.2-2 .5c-.6.3-1.1.7-1.5 1.3-.4.5-.7 1.1-1 1.8-.2.6-.3 1.3-.3 2zM130.7 32.6c0-.8.1-1.7.4-2.5.3-.8.7-1.6 1.3-2.3.6-.7 1.3-1.2 2.1-1.6.8-.4 1.8-.6 2.8-.6 1.3 0 2.3.3 3.2.9.9.6 1.6 1.3 2 2.2l-1.4.9c-.2-.5-.5-.8-.8-1.1-.3-.3-.6-.5-1-.7-.4-.2-.7-.3-1.1-.4s-.7-.1-1.1-.1c-.8 0-1.5.2-2.1.5-.6.3-1.1.7-1.5 1.3-.4.5-.7 1.1-.9 1.8-.2.7-.3 1.3-.3 2s.1 1.4.4 2.1c.2.7.6 1.3 1 1.8s1 .9 1.5 1.2c.6.3 1.2.5 1.9.5.4 0 .8 0 1.1-.1.4-.1.8-.2 1.1-.4.4-.2.7-.5 1-.8.3-.3.6-.7.8-1.1l1.5.8c-.2.5-.5 1-.9 1.4-.4.4-.9.7-1.4 1s-1.1.5-1.6.6c-.6.1-1.1.2-1.7.2-1 0-1.9-.2-2.7-.6-.8-.4-1.5-1-2.1-1.7-.6-.7-1-1.5-1.4-2.3 0-1.1-.1-2-.1-2.9zM154.7 38.1v1.6h-9.6V25.6h9.4v1.6h-7.6v4.6h6.6v1.5h-6.6v4.9h7.8zM161.5 25.6h1.5l5.8 14.1h-1.9l-1.7-4.1h-5.9l-1.6 4.1h-1.9l5.7-14.1zm3.3 8.6-2.5-6.5-2.6 6.5h5.1zM172.4 29v10.8h-1.8V25.6h1.4l8.7 11v-11h1.8v14.1H181L172.4 29zM123.1 44.3c-.1-.2-.3-.3-.5-.4-.2-.1-.5-.3-.7-.4l-.9-.3c-.3-.1-.6-.1-1-.1-.9 0-1.5.2-2 .5-.4.3-.6.8-.6 1.4 0 .3.1.6.2.8.1.2.3.4.6.5.3.1.6.3.9.4.4.1.8.2 1.3.3.6.1 1.1.3 1.6.4.5.2.9.4 1.2.6.3.2.6.5.8.9.2.4.3.8.3 1.3s-.1 1-.3 1.4c-.2.4-.5.7-.9 1-.4.3-.8.5-1.3.6-.5.1-1.1.2-1.6.2-.9 0-1.7-.1-2.5-.4-.8-.3-1.5-.7-2.2-1.2l.7-1.2c.2.2.4.4.7.5.3.2.6.3.9.5.3.1.7.3 1.1.4.4.1.8.1 1.3.1.8 0 1.5-.1 1.9-.4.5-.3.7-.7.7-1.3 0-.3-.1-.6-.2-.8-.1-.2-.4-.4-.6-.6-.3-.2-.6-.3-1-.4-.4-.1-.9-.2-1.4-.4-.6-.1-1.1-.3-1.5-.5-.4-.2-.8-.4-1.1-.6-.3-.2-.5-.5-.7-.8s-.2-.7-.2-1.2.1-1 .3-1.5c.2-.4.5-.8.9-1.1.4-.3.8-.5 1.3-.7.5-.1 1.1-.2 1.6-.2.8 0 1.5.1 2.1.4.6.2 1.2.6 1.7 1l-.9 1.3zM125.4 47.5c0-.7.1-1.4.4-2.1.2-.7.6-1.3 1.1-1.8.5-.5 1-1 1.7-1.3.7-.3 1.4-.5 2.3-.5 1 0 1.9.2 2.6.7.7.5 1.3 1.1 1.6 1.8l-1.1.7c-.2-.4-.4-.7-.6-.9-.2-.2-.5-.4-.8-.6-.3-.2-.6-.3-.9-.3s-.6-.1-.9-.1c-.6 0-1.2.1-1.7.4-.5.3-.9.6-1.2 1s-.6.9-.7 1.4c-.2.5-.2 1.1-.2 1.6 0 .6.1 1.2.3 1.7.2.5.5 1 .8 1.4.4.4.8.8 1.3 1 .5.2 1 .4 1.6.4.3 0 .6 0 .9-.1.3-.1.6-.2.9-.4.3-.2.6-.4.8-.6.3-.3.5-.6.6-.9l1.2.7c-.2.4-.4.8-.8 1.1-.3.3-.7.6-1.1.8s-.9.4-1.3.5c-.5.1-.9.2-1.4.2-.8 0-1.5-.2-2.2-.5-.7-.3-1.2-.8-1.7-1.3-.5-.6-.8-1.2-1.1-1.9-.2-.7-.4-1.4-.4-2.1zM137.2 53.3V41.9h1.5v11.4h-1.5zM149.1 52v1.3h-7.8V41.9h7.6v1.3h-6.2v3.7h5.4v1.2h-5.4V52h6.4zM152.6 44.6v8.7h-1.5V41.9h1.1l7.1 8.9v-8.9h1.5v11.4h-1.2l-7-8.7zM162.8 47.5c0-.7.1-1.4.4-2.1.2-.7.6-1.3 1.1-1.8.5-.5 1-1 1.7-1.3.7-.3 1.4-.5 2.3-.5 1 0 1.9.2 2.6.7.7.5 1.3 1.1 1.6 1.8l-1.1.7c-.2-.4-.4-.7-.6-.9-.2-.2-.5-.4-.8-.6-.3-.2-.6-.3-.9-.3-.3-.1-.6-.1-.9-.1-.6 0-1.2.1-1.7.4-.5.3-.9.6-1.2 1-.3.4-.6.9-.7 1.4-.2.5-.2 1.1-.2 1.6 0 .6.1 1.2.3 1.7.2.5.5 1 .8 1.4.4.4.8.8 1.3 1 .5.2 1 .4 1.6.4.3 0 .6 0 .9-.1.3-.1.6-.2.9-.4.3-.2.6-.4.8-.6.3-.3.5-.6.6-.9l1.2.7c-.2.4-.4.8-.8 1.1-.3.3-.7.6-1.1.8-.4.2-.9.4-1.3.5-.5.1-.9.2-1.4.2-.8 0-1.5-.2-2.2-.5-.7-.3-1.2-.8-1.7-1.3-.5-.6-.8-1.2-1.1-1.9-.3-.7-.4-1.4-.4-2.1zM182.3 52v1.3h-7.8V41.9h7.6v1.3H176v3.7h5.4v1.2H176V52h6.3z" fill="#26a8e0"/><path d="M124.6 19.8c0 .4-.1.9-.3 1.2-.2.4-.4.7-.7.9-.3.3-.7.5-1.1.6-.4.1-.8.2-1.3.2h-5.5V11.2h5.8c.4 0 .8.1 1.1.3.3.2.6.4.8.7.2.3.4.6.5.9.1.4.2.7.2 1.1 0 .6-.1 1.1-.4 1.6-.3.5-.7.9-1.2 1.1.7.2 1.2.6 1.6 1.1.3.5.5 1.1.5 1.8zm-7.5-7.3v3.9h3.7c.3 0 .5-.1.7-.2.2-.1.4-.2.6-.4.2-.2.3-.4.4-.6.1-.2.1-.5.1-.7 0-.3 0-.5-.1-.8-.1-.2-.2-.4-.4-.6-.1-.2-.3-.3-.5-.4-.2-.1-.4-.1-.7-.1h-3.8zm6 7c0-.3 0-.5-.1-.8-.1-.2-.2-.5-.4-.6-.2-.2-.3-.3-.6-.4-.2-.1-.5-.2-.7-.2h-4.1v4h4c.3 0 .5-.1.7-.2.2-.1.4-.3.6-.4.2-.2.3-.4.4-.6.1-.2.2-.5.2-.8zM134.5 21.5v1.3h-7.9V11.2h7.7v1.3h-6.2v3.7h5.4v1.2h-5.4v4h6.4zM137.9 14v8.8h-1.5V11.2h1.1l7.2 9v-9h1.5v11.6H145l-7.1-8.8zM149 22.8V11.2h1.5v11.6H149zM158 22.9c-.8 0-1.6-.2-2.2-.5-.7-.3-1.2-.8-1.7-1.3s-.8-1.2-1.1-1.9c-.3-.7-.4-1.4-.4-2.2 0-.8.1-1.5.4-2.2.3-.7.7-1.3 1.1-1.9.5-.5 1.1-1 1.7-1.3.7-.3 1.4-.5 2.2-.5.8 0 1.6.2 2.2.5.7.3 1.2.8 1.7 1.3.5.6.8 1.2 1.1 1.9.3.7.4 1.4.4 2.1 0 .8-.1 1.5-.4 2.2-.3.7-.7 1.3-1.1 1.9-.5.5-1.1 1-1.7 1.3-.7.4-1.5.6-2.2.6zm-4-5.9c0 .6.1 1.2.3 1.7.2.5.5 1 .8 1.5.3.4.8.8 1.3 1 .5.3 1 .4 1.6.4.6 0 1.2-.1 1.7-.4.5-.3.9-.6 1.2-1 .3-.4.6-.9.8-1.5.2-.5.3-1.1.3-1.6 0-.6-.1-1.2-.3-1.7-.2-.5-.5-1-.8-1.5-.4-.4-.8-.8-1.3-1-.5-.2-1-.4-1.6-.4-.6 0-1.2.1-1.7.4-.5.3-.9.6-1.2 1-.3.4-.6.9-.8 1.5-.2.5-.3 1-.3 1.6zM165.5 22.8V11.2h7.6v1.3h-6.2v3.9h5.2v1.2h-5.2v5.2h-1.4zM175 22.8V11.2h7.6v1.3h-6.2v3.9h5.2v1.2h-5.2v5.2H175z" fill="#ffffff"/></svg>